<svg id="Layer_1" enable-background="new 0 0 512.002 512.002" height="512" viewBox="0 0 512.002 512.002" width="512" xmlns="http://www.w3.org/2000/svg"><g><g clip-rule="evenodd" fill-rule="evenodd"><path d="m182.226 103.916c30.368-34.287 73.974-53.916 119.776-53.916 88.366 0 160 71.634 160 160 0 45.802-19.629 89.408-53.914 119.776-2.948 21.221-9.226 41.377-18.289 59.924 68.658-33.545 112.203-103.282 112.203-179.7 0-110.457-89.543-200-200-200-76.418 0-146.155 43.545-179.699 112.204 18.546-9.063 38.702-15.341 59.923-18.288z" fill="#ffcd69"/><path d="m302.002 50c-45.802 0-89.408 19.629-119.776 53.915 9.078-1.261 18.35-1.913 27.775-1.913 110.457 0 200 89.543 200 200 0 9.425-.652 18.697-1.913 27.774 34.286-30.368 53.914-73.974 53.914-119.776 0-88.366-71.634-160-160-160z" fill="#ffda8f"/><g fill="#ffc144"><path d="m410.001 302.002c0-110.457-89.543-200-200-200-9.425 0-18.697.652-27.775 1.913-21.221 2.948-41.377 9.226-59.923 18.29-66.499 32.495-112.303 100.797-112.303 179.797 0 110.457 89.543 200 200 200 79 0 147.302-45.803 179.798-112.302 9.063-18.547 15.341-38.703 18.289-59.924 1.262-9.077 1.914-18.35 1.914-27.774zm-360.001 0c0-88.366 71.634-160 160-160s160 71.634 160 160-71.634 160-160 160-160-71.634-160-160z"/><path d="m170.001 365.833c12.635-18.284 20.001-40.229 20.001-63.831s-7.365-45.547-20.004-63.833c-12.635 18.284-19.998 40.231-19.998 63.833s7.363 45.55 20.001 63.831z"/><path d="m250 365.833c-12.635-18.284-20.001-40.229-20.001-63.831s7.365-45.547 20.004-63.833c12.635 18.284 19.998 40.23 19.998 63.833 0 23.602-7.363 45.55-20.001 63.831z"/></g><path d="m250 365.833c-12.635-18.284-20.001-40.229-20.001-63.831s7.365-45.547 20.004-63.833c-10.241-14.819-23.946-27.231-40.003-36.167-16.057 8.936-29.762 21.348-40.003 36.167 12.639 18.285 20.004 40.23 20.004 63.833 0 23.602-7.365 45.547-20.004 63.832 10.241 14.819 23.946 27.231 40.003 36.167 16.057-8.936 29.762-21.348 40-36.168z" fill="#ffda8f"/><path d="m169.999 365.836c-12.636-18.284-19.999-40.231-19.999-63.834 0-23.602 7.362-45.549 19.998-63.833 10.241-14.818 23.946-27.231 40.003-36.167 16.056 8.936 29.761 21.347 40.003 36.167 12.635 18.284 19.998 40.231 19.998 63.833s-7.362 45.549-19.998 63.833c-10.241 14.819-23.946 27.231-40.002 36.167-16.058-8.936-29.762-21.348-40.003-36.166zm40.001-223.834c-88.366 0-160 71.634-160 160s71.634 160 160 160 160-71.634 160-160c.001-88.366-71.634-160-160-160z" fill="#ffcd69"/></g><g><path d="m302.002 0c-38.732 0-76.662 10.693-109.69 30.924-33.028 20.23-59.787 49.162-77.384 83.665-.042.083-.074.169-.114.253-68.086 34.769-114.814 105.609-114.814 187.16 0 115.794 94.205 210 210 210 81.553 0 152.393-46.73 187.161-114.818.083-.04.168-.068.251-.11 34.504-17.597 63.435-44.356 83.666-77.384 20.23-33.028 30.924-70.958 30.924-109.69 0-115.794-94.205-210-210-210zm-92.002 492.002c-104.767 0-190-85.234-190-190s85.233-190 190-190 190.001 85.234 190.001 190-85.234 190-190.001 190zm0-400c-.194 0-.386.007-.58.007 26.231-20.546 58.878-32.009 92.582-32.009 82.71 0 150 67.29 150 150 0 33.703-11.462 66.35-32.008 92.581 0-.194.007-.386.007-.579 0-115.795-94.206-210-210.001-210zm199.876 274.432c3.306-10.231 5.852-20.799 7.56-31.644 34.683-32.085 54.566-77.523 54.566-124.789 0-93.738-76.262-170-170-170-47.267 0-92.705 19.883-124.79 54.567-10.845 1.708-21.413 4.254-31.644 7.56 35.163-51.2 93.099-82.128 156.434-82.128 104.767 0 190 85.234 190 190 0 63.336-30.928 121.27-82.126 156.434z"/><path d="m210 132.002c-37.587 0-73.211 12.021-103.02 34.764-28.845 22.008-50.257 53.224-60.291 87.897-1.536 5.305 1.521 10.851 6.825 12.386 5.303 1.534 10.852-1.521 12.386-6.826 18.44-63.719 77.696-108.221 144.1-108.221 82.711 0 150.001 67.29 150.001 150s-67.29 150-150.001 150c-66.399 0-125.642-44.503-144.065-108.223-1.533-5.306-7.083-8.361-12.384-6.829-5.306 1.534-8.363 7.079-6.829 12.384 10.097 34.918 31.672 66.266 60.753 88.267 29.745 22.505 65.198 34.4 102.525 34.4 93.739 0 170.001-76.262 170.001-170s-76.262-169.999-170.001-169.999z"/><path d="m141.669 410.443c1.663 1.056 3.518 1.56 5.352 1.56 3.309 0 6.546-1.641 8.451-4.64l15.417-24.274c9.557 10.906 21.078 20.321 34.249 27.651 1.512.842 3.188 1.262 4.863 1.262s3.352-.421 4.863-1.262c13.171-7.33 24.693-16.745 34.249-27.651l15.417 24.275c1.905 3 5.143 4.64 8.451 4.64 1.833 0 3.689-.504 5.352-1.56 4.662-2.961 6.041-9.141 3.08-13.803l-19.575-30.823c11.672-19.05 18.164-41.034 18.164-63.816s-6.492-44.766-18.164-63.816l19.575-30.823c2.961-4.662 1.582-10.842-3.08-13.803-4.664-2.962-10.842-1.583-13.803 3.08l-15.417 24.274c-9.557-10.906-21.079-20.321-34.25-27.651-3.023-1.683-6.703-1.683-9.727 0-13.17 7.33-24.692 16.745-34.249 27.651l-15.416-24.274c-2.961-4.662-9.142-6.042-13.803-3.08-4.662 2.961-6.041 9.141-3.08 13.803l19.575 30.823c-11.671 19.05-18.163 41.034-18.163 63.816s6.492 44.766 18.164 63.816l-19.575 30.823c-2.961 4.661-1.582 10.841 3.08 13.802zm28.373-152.311c6.542 13.682 9.96 28.59 9.96 43.87s-3.418 30.187-9.96 43.87c-6.501-13.58-10.042-28.514-10.042-43.87s3.541-30.291 10.042-43.87zm69.957 43.87c0-15.279 3.418-30.187 9.96-43.869 6.501 13.579 10.042 28.514 10.042 43.869s-3.541 30.29-10.042 43.869c-6.542-13.682-9.96-28.59-9.96-43.869zm-29.999-88.39c10.843 6.784 20.215 15.287 27.825 24.997-11.671 19.185-17.826 40.947-17.826 63.393 0 22.445 6.155 44.208 17.826 63.393-7.61 9.71-16.982 18.213-27.825 24.997-10.843-6.784-20.214-15.287-27.824-24.997 11.672-19.186 17.826-40.948 17.826-63.394s-6.155-44.208-17.826-63.393c7.61-9.709 16.981-18.212 27.824-24.996z"/><path d="m60.001 302.002c0-5.523-4.478-10-10-10h-.008c-5.522 0-9.996 4.477-9.996 10s4.481 10 10.004 10 10-4.477 10-10z"/></g></g></svg>