<svg id="Layer_1" enable-background="new 0 0 511 511" height="512" viewBox="0 0 511 511" width="512" xmlns="http://www.w3.org/2000/svg"><g><g><path d="m255.5 14.621c-95.51 0-154.345 53.874-154.507 53.965 0 0-2.446 3.053-2.903 5.083-3.716 16.496-7.188 38.604-7.188 54.736 0 137.071 115.591 248.162 252.663 248.162 52.783 0 111.508-25.298 150.811-55.714.879-.68 3.669-5.252 3.669-5.252.173-1.058 5.646-22.85 5.646-52.79-.001-137.072-111.12-248.19-248.191-248.19z" fill="#93d8e4"/><path d="m343.543 369.56c-137.071 0-248.19-111.118-248.19-248.19 0-18.118 1.954-35.771 5.64-52.785-57.078 45.473-93.683 115.576-93.683 194.225 0 70.203 29.148 133.598 76.001 178.744l344.034.321c34.831-33.409 60.017-76.973 70.698-126.275-42.395 33.769-96.086 53.96-154.5 53.96z" fill="#7ad0df"/></g><g><g><path d="m138.011 184.04-6.938-.932 18.962-141.176c2.602-19.373 19.305-33.982 38.852-33.982h9.096v7h-9.096c-16.057 0-29.777 12-31.915 27.914z" fill="#373c41"/></g><path d="m380.271 402.467-125.039-27.669-88.583 19.661v100.156c23.447 8.996 48.606 14.536 74.855 15.996l11.174-4.212 15.223 4.294c61.644-3.047 117.757-28.691 159.77-69.136-8.427-19.388-25.72-34.292-47.4-39.09z" fill="#d82e3d"/><path d="m255.232 374.798-124.545 27.643c-21.67 4.81-38.95 19.718-47.367 39.104 24.004 23.129 52.656 41.461 84.416 53.472v-26.577c0-31.693 22.016-59.132 52.956-65.999l79.61-17.67z" fill="#c10a54"/><g><path d="m255.553 483.585c-57.758 0-124.866-81.144-124.866-81.144s32.247-73.422 124.866-73.422c92.353 0 127.266 74.066 127.266 74.066s-69.873 80.5-127.266 80.5z" fill="#c10a54"/></g><g><path d="m255.232 347.485c-44.793 0-81.106 20.317-81.106 45.379l81.106-18.663 81.106 18.663c-.001-25.062-36.313-45.379-81.106-45.379z" fill="#93293b"/></g><g><path d="m255.739 467.228c31.595 0 57.207-25.613 57.207-57.207v-22.451l-57.715-12.771-56.7 12.585v22.638c.001 31.594 25.613 57.206 57.208 57.206z" fill="#ffc305"/></g><g><g><g><path d="m255.739 443.051c-19.942 0-36.109-16.166-36.109-36.109v-80.878h72.217v80.878c.001 19.942-16.166 36.109-36.108 36.109z" fill="#d6933f"/></g></g></g><g><g><g><path d="m353.694 199.375c0-32.952-21.139-63.085-54.092-63.085h-87.725c-9.403 0-18.015 2.461-25.528 6.733v174.171c0 38.015 30.576 69.126 68.59 69.414.266.002.533.003.8.003 56.617 0 102.514-45.897 102.514-102.514v-32.364z" fill="#d6933f"/></g></g></g><g><g><g><path d="m358.253 270.371v-60.933c13.275 0 24.036 10.761 24.036 24.036v12.862c0 13.274-10.761 24.035-24.036 24.035z" fill="#d6933f"/></g></g></g><g><g><g><path d="m128.175 246.335c0 13.275 10.761 24.036 24.036 24.036v-60.933c-13.275 0-24.036 10.761-24.036 24.036z" fill="#c77b22"/></g></g></g><g><g><g><path d="m211.446 245.789v7.229c0 4.715 3.823 8.538 8.538 8.538s8.538-3.823 8.538-8.538v-7.229z" fill="#c77b22"/></g></g></g><g><g><g><path d="m281.015 245.789v7.229c0 4.715 3.823 8.538 8.538 8.538s8.538-3.823 8.538-8.538v-7.229z" fill="#c77b22"/></g></g></g><g><g><g><path d="m219.984 254.717c-4.715 0-8.538-3.823-8.538-8.538v-10.983l3.148-4.766-3.148-4.766v-2.837c0-4.715 3.823-8.538 8.538-8.538s8.538 3.823 8.538 8.538v23.351c.001 4.716-3.822 8.539-8.538 8.539z" fill="#373c41"/></g></g></g><g><g><g><path d="m289.553 254.717c-4.715 0-8.538-3.823-8.538-8.538v-10.983l3.147-4.766-3.147-4.766v-2.837c0-4.715 3.823-8.538 8.538-8.538s8.538 3.823 8.538 8.538v23.351c.001 4.716-3.822 8.539-8.538 8.539z" fill="#373c41"/></g></g></g><g><g><g><g><path d="m231.233 210.02h-24.9c-4.715 0-8.538-3.823-8.538-8.538 0-4.715 3.823-8.538 8.538-8.538h24.9c4.715 0 8.538 3.823 8.538 8.538 0 4.716-3.822 8.538-8.538 8.538z" fill="#5a2d19"/></g></g></g></g><g><g><g><g><path d="m302.385 210.02h-24.9c-4.716 0-8.538-3.823-8.538-8.538 0-4.715 3.823-8.538 8.538-8.538h24.9c4.716 0 8.538 3.823 8.538 8.538 0 4.716-3.823 8.538-8.538 8.538z" fill="#5a2d19"/></g></g></g></g><g><path d="m287.178 301.952h-8.792l-23.154 4.807-23.154-4.807h-7.777c-2.609 0-4.694 2.277-4.346 4.863.666 4.947 2.333 9.576 4.792 13.676l46.883 13.894c10.588-5.197 18.259-15.427 19.893-27.57.348-2.585-1.736-4.863-4.345-4.863z" fill="#c10a54"/></g><g><g><g><path d="m241.905 266.838c-2.123 8.476 1.735 17.708 9.112 20.491 1.484.56 3.072.863 4.723.863 1.65 0 3.238-.303 4.723-.863 7.377-2.783 11.234-12.016 9.112-20.491l-7.036-28.098c-1.772-7.074-11.824-7.074-13.596 0z" fill="#c77b22"/></g></g></g><g><path d="m214.594 238.344c-1.738 0-3.148-1.409-3.148-3.148v-9.532c0-1.738 1.409-3.148 3.148-3.148 1.738 0 3.148 1.409 3.148 3.148v9.532c-.001 1.738-1.41 3.148-3.148 3.148z" fill="#fff"/></g><g><path d="m284.163 238.344c-1.738 0-3.147-1.409-3.147-3.148v-9.532c0-1.738 1.409-3.148 3.147-3.148 1.738 0 3.148 1.409 3.148 3.148v9.532c-.001 1.738-1.41 3.148-3.148 3.148z" fill="#fff"/></g><g><path d="m205.78 139.994c-29.827 2.817-51.31 26.236-51.31 57.122l-2.259 54.617v31.349c0 59.169 49.576 106.531 109.085 103.379-43.099-12.517-74.604-52.29-74.604-99.427.256-5.824 0-62.267 0-83.707 0-9.502 2.223-18.483 6.177-26.454 7.258-14.633 22.203-24.064 38.535-24.327.08-.001.159-.002.239-.003l-.235-.016h50.454c34.606 0 62.66 28.054 62.66 62.66v29.817c0 7.583 6.148 13.731 13.731 13.731v-118.21z" fill="#c77b22"/></g><g><path d="m224.751 320.489c6.309 10.525 17.824 17.572 30.988 17.572 5.702 0 11.093-1.326 15.888-3.68-2.061-12.931-13.26-22.814-26.772-22.814-7.973 0-15.143 3.443-20.104 8.922z" fill="#dd544f"/></g><g><path d="m273.292 311.567h-36.121c-2.813 0-5.094-2.28-5.094-5.094v-4.521h46.308v4.521c.001 2.813-2.28 5.094-5.093 5.094z" fill="#fff"/></g><g><path d="m319.224 89.225h-127.984c-21.555 0-39.029 17.474-39.029 39.029v15.271l33.477 2h96.174c34.606 0 62.66 28.054 62.66 62.66v29.817c0 7.583 6.148 13.731 13.731 13.731v-106.208-17.271c0-21.555-17.474-39.029-39.029-39.029z" fill="#5a2d19"/></g><g><path d="m227.962 149.072c-6.157 11.918-16.881 21.166-29.978 25.3 8.939 6.25 19.933 9.707 31.671 9.142 21.509-1.034 39.253-15.243 45.839-34.442z" fill="#c77b22"/></g><g><path d="m291.921 153.055c-.4-1.324-.689-2.655-.892-3.983h-25.454c.144 2.108.512 4.232 1.149 6.342 4.57 15.133 20.542 23.695 35.674 19.125 2.42-.731 4.67-1.756 6.727-3.02-7.993-3.054-14.539-9.638-17.204-18.464z" fill="#c77b22"/></g><g><path d="m229.821 100.354c2.15 5.233 3.467 10.911 3.754 16.887 1.138 23.658-14.019 44.321-35.591 51.13 8.939 6.25 19.933 9.707 31.671 9.143 28.161-1.354 49.893-25.282 48.538-53.443-.635-13.196-6.234-24.969-14.896-33.624z" fill="#5a2d19"/></g><g><path d="m291.921 147.055c-2.438-8.073-1.133-16.382 2.909-23.074l-21.259-2.759c-6.981 7.217-9.957 17.895-6.848 28.19 4.57 15.133 20.542 23.695 35.674 19.126 2.42-.731 4.67-1.756 6.727-3.02-7.992-3.054-14.538-9.638-17.203-18.463z" fill="#5a2d19"/></g><g><path d="m152.211 142.499v57.417.003 51.814c7.583 0 13.731-6.148 13.731-13.731v-25.926c0-36.422 29.282-66.076 65.701-66.535l-45.237-3.042z" fill="#5a2d19"/></g><g><path d="m322.48 15.437c-.767-5.054-4.633-9.103-9.659-10.043-38.236-7.152-76.303-7.224-114.197-.024-.091.017-.179.043-.269.062v82.672c45.787-6.273 91.741 9.045 137.857 17.804z" fill="#d82e3d"/></g><g><path d="m224.868 30.437c2.282-15.035-10.928-27.957-25.871-25.138-.13.025-.26.049-.39.074-5.003.951-8.839 4.998-9.603 10.032l-13.737 90.502c53.422-10.318 107.072-10.232 160.945 0-3.11-20.489-20.811-35.555-41.535-35.405-10.446.076-20.884.541-31.314 1.398-23.17 1.906-41.984-18.478-38.495-41.463z" fill="#c10a54"/></g><path d="m241.504 510.599c4.634.258 9.298.401 13.996.401 4.515 0 9-.136 13.46-.375v-34.589h-27.456z" fill="#c10a54"/><g><g><path d="m148.444 185.039-28.804-2.929 13.614-75.298c1.089-6.023 6.723-10.123 12.788-9.309 6.114.821 10.478 6.34 9.867 12.478z" fill="#373c41"/></g></g></g></g></svg>